<?xml version="1.0" encoding="iso-8859-1"?>
<!-- Generator: Adobe Illustrator 19.0.0, SVG Export Plug-In . SVG Version: 6.00 Build 0)  -->
<svg version="1.1" id="Capa_1" xmlns="http://www.w3.org/2000/svg" xmlns:xlink="http://www.w3.org/1999/xlink" x="0px" y="0px"
	 viewBox="0 0 511.999 511.999" style="enable-background:new 0 0 511.999 511.999;" xml:space="preserve">
<g>
	<path style="fill:#F9D366;" d="M241.616,134.651c-4.332,0-7.844-3.512-7.844-7.844v-20.788c0-4.332,3.512-7.844,7.844-7.844
		c4.332,0,7.844,3.512,7.844,7.844v20.788C249.46,131.139,245.948,134.651,241.616,134.651z"/>
	<path style="fill:#F9D366;" d="M241.616,190.617c-4.332,0-7.844-3.512-7.844-7.844v-20.788c0-4.332,3.512-7.844,7.844-7.844
		c4.332,0,7.844,3.512,7.844,7.844v20.788C249.46,187.105,245.948,190.617,241.616,190.617z"/>
	<path style="fill:#F9D366;" d="M279.993,152.24h-20.787c-4.332,0-7.844-3.512-7.844-7.844c0-4.332,3.512-7.844,7.844-7.844h20.787
		c4.332,0,7.844,3.512,7.844,7.844C287.837,148.728,284.325,152.24,279.993,152.24z"/>
	<path style="fill:#F9D366;" d="M224.026,152.24h-20.788c-4.332,0-7.844-3.512-7.844-7.844c0-4.332,3.512-7.844,7.844-7.844h20.788
		c4.332,0,7.844,3.512,7.844,7.844C231.871,148.728,228.359,152.24,224.026,152.24z"/>
	<path style="fill:#F9D366;" d="M456.607,245.451c-4.332,0-7.844-3.512-7.844-7.844v-20.788c0-4.332,3.512-7.844,7.844-7.844
		s7.844,3.512,7.844,7.844v20.788C464.451,241.939,460.94,245.451,456.607,245.451z"/>
	<path style="fill:#F9D366;" d="M456.607,301.416c-4.332,0-7.844-3.512-7.844-7.844v-20.788c0-4.332,3.512-7.844,7.844-7.844
		s7.844,3.512,7.844,7.844v20.788C464.451,297.904,460.94,301.416,456.607,301.416z"/>
	<path style="fill:#F9D366;" d="M494.984,263.04h-20.788c-4.332,0-7.844-3.512-7.844-7.844c0-4.332,3.512-7.844,7.844-7.844h20.788
		c4.332,0,7.844,3.512,7.844,7.844C502.828,259.528,499.316,263.04,494.984,263.04z"/>
	<path style="fill:#F9D366;" d="M439.018,263.04h-20.788c-4.332,0-7.844-3.512-7.844-7.844c0-4.332,3.512-7.844,7.844-7.844h20.788
		c4.332,0,7.844,3.512,7.844,7.844C446.863,259.528,443.351,263.04,439.018,263.04z"/>
</g>
<path style="fill:#DD8833;" d="M478.023,108.002l23.575-4.78c11.13-2.257,11.13-18.164,0-20.42l-23.575-4.78
	c-23.232-4.71-41.389-22.867-46.1-46.1l-4.78-23.575c-2.257-11.13-18.164-11.13-20.42,0l-4.78,23.575
	c-4.71,23.232-22.867,41.389-46.1,46.1l-23.575,4.78c-11.13,2.256-11.13,18.164,0,20.42l23.575,4.78
	c23.232,4.71,41.389,22.867,46.1,46.1l4.78,23.575c2.257,11.13,18.164,11.13,20.42,0l4.78-23.575
	C436.634,130.869,454.791,112.712,478.023,108.002z"/>
<path style="fill:#F9D366;" d="M478.79,318.292c-78.695,78.695-206.286,78.695-284.981,0s-78.695-206.286,0-284.981
	c13.28-13.28,27.957-24.31,43.551-33.108C178.246,4.57,120.359,29.348,75.156,74.551c-100.072,100.072-100.072,262.322,0,362.394
	s262.322,100.072,362.394,0c45.203-45.203,69.981-103.091,74.347-162.205C503.1,290.336,492.07,305.012,478.79,318.292z"/>
<path style="fill:#DD8833;" d="M293.854,347.666l20.002-4.055c9.444-1.915,9.444-15.411,0-17.325l-20.002-4.055
	c-19.711-3.996-35.117-19.402-39.113-39.113l-4.055-20.002c-1.915-9.444-15.411-9.444-17.325,0l-4.055,20.002
	c-3.996,19.712-19.402,35.117-39.113,39.113l-20.002,4.055c-9.444,1.915-9.444,15.411,0,17.325l20.002,4.055
	c19.712,3.996,35.117,19.402,39.113,39.113l4.055,20.002c1.915,9.444,15.411,9.444,17.325,0l4.055-20.002
	C258.738,367.068,274.143,351.663,293.854,347.666z"/>
<g>
</g>
<g>
</g>
<g>
</g>
<g>
</g>
<g>
</g>
<g>
</g>
<g>
</g>
<g>
</g>
<g>
</g>
<g>
</g>
<g>
</g>
<g>
</g>
<g>
</g>
<g>
</g>
<g>
</g>
</svg>
